<?xml version="1.0" standalone="no"?><!DOCTYPE svg PUBLIC "-//W3C//DTD SVG 1.1//EN" "http://www.w3.org/Graphics/SVG/1.1/DTD/svg11.dtd"><svg t="1645942290984" class="icon" viewBox="0 0 1090 1024" version="1.1" xmlns="http://www.w3.org/2000/svg" p-id="6666" width="545" height="512" xmlns:xlink="http://www.w3.org/1999/xlink"><defs><style type="text/css"></style></defs><path d="M953.6 512l121.6-121.6c19.2-19.2 19.2-51.2 0-70.4-19.2-19.2-51.2-19.2-70.4 0L883.2 441.6 761.6 320c-19.2-19.2-51.2-19.2-70.4 0-19.2 19.2-19.2 51.2 0 70.4L806.4 512 684.8 633.6c-19.2 19.2-19.2 51.2 0 70.4 19.2 19.2 51.2 19.2 70.4 0l121.6-121.6L998.4 704c19.2 19.2 51.2 19.2 70.4 0 19.2-19.2 19.2-51.2 0-70.4L953.6 512zM512 70.4c57.6-44.8 102.4-19.2 102.4 51.2v800c0 70.4-44.8 89.6-96 44.8L288 774.4H160c-70.4 0-128-57.6-128-128V384c0-70.4 57.6-128 128-128h121.6L512 70.4z" p-id="6667" fill="#14a6f5"></path></svg>
