<?xml version="1.0" standalone="no"?><!DOCTYPE svg PUBLIC "-//W3C//DTD SVG 1.1//EN" "http://www.w3.org/Graphics/SVG/1.1/DTD/svg11.dtd"><svg t="1645942196525" class="icon" viewBox="0 0 1024 1024" version="1.1" xmlns="http://www.w3.org/2000/svg" p-id="5710" width="512" height="512" xmlns:xlink="http://www.w3.org/1999/xlink"><defs><style type="text/css"></style></defs><path d="M525.824 139.5712c18.944-11.3664 43.1104 2.2528 43.1104 24.3712v696.0128c0 22.1184-24.1664 35.7376-43.1104 24.3712L297.984 747.6224c-8.8064-5.3248-18.944-8.0896-29.2864-8.0896H113.7664c-31.4368 0-56.9344-25.3952-56.9344-56.9344V341.2992c0-31.4368 25.3952-56.9344 56.9344-56.9344h154.8288c10.3424 0 20.48-2.7648 29.2864-8.0896l227.9424-136.704zM704.8192 290.816c59.0848 59.0848 91.648 137.6256 91.648 221.2864 0 83.5584-32.5632 162.0992-91.648 221.184-5.3248 5.3248-12.5952 8.3968-20.1728 8.3968-7.2704 0-14.5408-2.7648-20.0704-8.3968-11.0592-11.0592-11.0592-29.0816 0-40.2432 48.4352-48.3328 74.9568-112.5376 74.9568-180.9408 0-68.4032-26.5216-132.7104-74.9568-181.0432-11.0592-11.0592-11.0592-29.0816 0-40.2432 11.0592-11.1616 29.0816-11.1616 40.2432 0z m120.7296-120.7296c91.3408 91.3408 141.6192 212.7872 141.6192 341.9136 0 129.1264-50.2784 250.5728-141.6192 341.9136-5.3248 5.3248-12.5952 8.3968-20.1728 8.3968-7.2704 0-14.5408-2.7648-20.0704-8.3968-11.0592-11.0592-11.0592-29.0816 0-40.2432 80.5888-80.5888 124.928-187.6992 124.928-301.6704 0-113.9712-44.3392-221.0816-124.928-301.7728-11.0592-11.0592-11.0592-29.0816 0-40.2432 11.0592-11.0592 29.0816-11.0592 40.2432 0.1024z" fill="#14a6f5" p-id="5711"></path></svg>
