<?xml version="1.0" standalone="no"?><!DOCTYPE svg PUBLIC "-//W3C//DTD SVG 1.1//EN" "http://www.w3.org/Graphics/SVG/1.1/DTD/svg11.dtd"><svg t="1644383077430" class="icon" viewBox="0 0 1024 1024" version="1.1" xmlns="http://www.w3.org/2000/svg" p-id="6598" width="512" height="512" xmlns:xlink="http://www.w3.org/1999/xlink"><defs><style type="text/css"></style></defs><path d="M128 128h85.333333v85.333333H128V128z m170.666667 0h85.333333v85.333333H298.666667V128z m170.666666 0h85.333334v85.333333h-85.333334V128z m170.666667 0h85.333333v85.333333h-85.333333V128z m170.666667 0h85.333333v85.333333h-85.333333V128z m0 170.666667h85.333333v85.333333h-85.333333V298.666667zM128 810.666667h85.333333v85.333333H128v-85.333333z m0-170.666667h85.333333v85.333333H128v-85.333333z m0-170.666667h85.333333v85.333334H128v-85.333334z m0-170.666666h85.333333v85.333333H128V298.666667z m327.125333 170.666666l44.202667-66.346666A42.666667 42.666667 0 0 1 534.826667 384h125.013333a42.666667 42.666667 0 0 1 35.498667 18.986667L739.541333 469.333333H853.333333a42.666667 42.666667 0 0 1 42.666667 42.666667v341.333333a42.666667 42.666667 0 0 1-42.666667 42.666667H341.333333a42.666667 42.666667 0 0 1-42.666666-42.666667v-341.333333a42.666667 42.666667 0 0 1 42.666666-42.666667h113.792zM597.333333 768a85.333333 85.333333 0 1 0 0-170.666667 85.333333 85.333333 0 0 0 0 170.666667z" p-id="6599" fill="#1296db"></path></svg>