<?xml version="1.0" standalone="no"?><!DOCTYPE svg PUBLIC "-//W3C//DTD SVG 1.1//EN" "http://www.w3.org/Graphics/SVG/1.1/DTD/svg11.dtd"><svg t="1644904376170" class="icon" viewBox="0 0 1024 1024" version="1.1" xmlns="http://www.w3.org/2000/svg" p-id="4735" width="512" height="512" xmlns:xlink="http://www.w3.org/1999/xlink"><defs><style type="text/css"></style></defs><path d="M402.773333 327.68c-6.826667 3.413333-10.24 10.24-10.24 13.653333v341.333334c0 6.826667 3.413333 10.24 10.24 13.653333 3.413333 0 6.826667 3.413333 6.826667 3.413333 3.413333 0 6.826667 0 10.24-3.413333l273.066667-170.666667c3.413333-3.413333 6.826667-10.24 6.826666-13.653333s-3.413333-10.24-6.826666-13.653333l-273.066667-170.666667c-3.413333-3.413333-13.653333-3.413333-17.066667 0zM481.28 836.266667c-150.186667-17.066667-273.066667-139.946667-290.133333-290.133334 0-10.24-6.826667-17.066667-17.066667-17.066666h-136.533333c-3.413333 0-10.24 3.413333-13.653334 6.826666-3.413333 3.413333-3.413333 6.826667-3.413333 13.653334 17.066667 242.346667 215.04 436.906667 460.8 453.973333 3.413333 0 6.826667 0 10.24-3.413333s6.826667-6.826667 6.826667-13.653334v-136.533333c0-6.826667-6.826667-13.653333-17.066667-13.653333zM37.546667 494.933333h136.533333c10.24 0 17.066667-6.826667 17.066667-17.066666 17.066667-150.186667 139.946667-273.066667 290.133333-290.133334 10.24 0 13.653333-6.826667 13.653333-17.066666V34.133333c0-3.413333-3.413333-10.24-6.826666-13.653333s-3.413333-3.413333-6.826667 0C235.52 37.546667 37.546667 232.106667 20.48 477.866667c0 3.413333 0 10.24 3.413333 13.653333 6.826667 0 10.24 3.413333 13.653334 3.413333zM542.72 187.733333c153.6 13.653333 276.48 136.533333 290.133333 290.133334 0 10.24 6.826667 17.066667 17.066667 17.066666h136.533333c10.24 0 17.066667-6.826667 17.066667-17.066666v-6.826667C989.866667 228.693333 791.893333 37.546667 546.133333 20.48c-3.413333 0-10.24 0-13.653333 3.413333s-6.826667 6.826667-6.826667 13.653334v136.533333c6.826667 6.826667 13.653333 13.653333 17.066667 13.653333zM989.866667 529.066667h-136.533334c-10.24 0-17.066667 6.826667-17.066666 17.066666-13.653333 153.6-136.533333 276.48-290.133334 290.133334-10.24 0-13.653333 6.826667-13.653333 17.066666v136.533334c0 3.413333 3.413333 10.24 6.826667 13.653333 3.413333 3.413333 6.826667 3.413333 10.24 3.413333 242.346667-17.066667 440.32-215.04 457.386666-457.386666 0-3.413333 0-10.24-3.413333-13.653334-3.413333-3.413333-6.826667-6.826667-13.653333-6.826666z" fill="#424242" p-id="4736"></path></svg>
